<svg width="157" height="45" viewBox="0 0 157 45" fill="none" xmlns="http://www.w3.org/2000/svg">
<path d="M155.673 39.8103C155.673 42.2084 153.69 44.151 151.238 44.151H6.07629C3.62472 44.151 1.63477 42.2084 1.63477 39.8103V5.19534C1.63477 2.79837 3.62472 0.84906 6.07629 0.84906H151.236C153.69 0.84906 155.672 2.79837 155.672 5.19534L155.673 39.8103Z" fill="white"/>
<path d="M150.77 0.901409C153.441 0.901409 155.614 3.02063 155.614 5.625V39.375C155.614 41.9794 153.441 44.0986 150.77 44.0986H6.53876C3.86761 44.0986 1.69405 41.9794 1.69405 39.375V5.625C1.69405 3.02063 3.86761 0.901409 6.53876 0.901409H150.77ZM150.77 3.8147e-06H6.53876C3.36713 3.8147e-06 0.769531 2.53266 0.769531 5.625V39.375C0.769531 42.4673 3.36713 45 6.53876 45H150.77C153.941 45 156.539 42.4673 156.539 39.375V5.625C156.539 2.53266 153.941 3.8147e-06 150.77 3.8147e-06Z" fill="#A6A6A6"/>
<path d="M35.5325 22.257C35.499 18.6311 38.5775 16.8671 38.7183 16.785C36.9748 14.3066 34.2725 13.968 33.3229 13.941C31.0533 13.7081 28.8517 15.2651 27.6956 15.2651C26.5163 15.2651 24.7359 13.9635 22.8171 14.0018C20.3479 14.0389 18.0379 15.4328 16.7709 17.5973C14.1563 22.0106 16.1063 28.4963 18.6113 32.0636C19.8644 33.8108 21.3286 35.7615 23.2452 35.6929C25.1202 35.6175 25.8206 34.5274 28.0833 34.5274C30.3252 34.5274 30.9829 35.6929 32.9375 35.649C34.9498 35.6175 36.2167 33.894 37.426 32.1311C38.874 30.1286 39.4556 28.1565 39.4786 28.0553C39.4313 28.0395 35.5706 26.6029 35.5325 22.257Z" fill="black"/>
<path d="M31.8402 11.5943C32.8486 10.3646 33.5386 8.69177 33.3471 6.99414C31.8875 7.05714 30.0621 7.97852 29.0109 9.18114C28.0809 10.2409 27.2502 11.9779 27.4648 13.6114C29.1044 13.7306 30.7879 12.8048 31.8402 11.5943Z" fill="black"/>
<path d="M57.3658 11.2601C57.3658 12.5842 56.9585 13.581 56.145 14.2503C55.3916 14.868 54.3208 15.1773 52.9339 15.1773C52.2462 15.1773 51.6577 15.1481 51.165 15.0896V7.85472C51.8077 7.75347 52.5 7.70172 53.2477 7.70172C54.5689 7.70172 55.5647 7.98185 56.2362 8.5421C56.9885 9.17547 57.3658 10.0811 57.3658 11.2601ZM56.0908 11.2927C56.0908 10.4343 55.8577 9.77622 55.3916 9.31722C54.9254 8.85935 54.2447 8.62985 53.3481 8.62985C52.9674 8.62985 52.6431 8.6546 52.3743 8.70635V14.2065C52.5231 14.229 52.7954 14.2391 53.1912 14.2391C54.1166 14.2391 54.8308 13.9882 55.3339 13.4865C55.837 12.9847 56.0908 12.2535 56.0908 11.2927Z" fill="black"/>
<path d="M64.1261 12.4166C64.1261 13.2322 63.8873 13.9005 63.4096 14.4247C62.9088 14.9636 62.2454 15.2325 61.4169 15.2325C60.6184 15.2325 59.9827 14.9749 59.5084 14.4574C59.0354 13.941 58.7988 13.2896 58.7988 12.5044C58.7988 11.6831 59.0423 11.0092 59.5315 10.4861C60.0208 9.96299 60.6784 9.70087 61.5069 9.70087C62.3054 9.70087 62.9469 9.95849 63.4327 10.4749C63.8942 10.9766 64.1261 11.6246 64.1261 12.4166ZM62.8719 12.4549C62.8719 11.9655 62.7634 11.5459 62.5477 11.196C62.2938 10.773 61.9327 10.5615 61.4631 10.5615C60.9773 10.5615 60.6081 10.773 60.3542 11.196C60.1373 11.5459 60.03 11.9722 60.03 12.4762C60.03 12.9656 60.1384 13.3852 60.3542 13.7351C60.6161 14.1581 60.9808 14.3696 61.4515 14.3696C61.9131 14.3696 62.2754 14.1547 62.5361 13.7239C62.76 13.3672 62.8719 12.9442 62.8719 12.4549Z" fill="black"/>
<path d="M73.1903 9.80884L71.4884 15.1121H70.3807L69.6757 12.8092C69.4969 12.2343 69.3515 11.6628 69.2384 11.0958H69.2165C69.1115 11.6786 68.9661 12.249 68.7792 12.8092L68.0303 15.1121H66.91L65.3096 9.80884H66.5523L67.1673 12.33C67.3161 12.9262 67.4384 13.4943 67.5365 14.0321H67.5584C67.6484 13.5888 67.7973 13.0241 68.0073 12.3412L68.7792 9.80996H69.7646L70.5042 12.2872C70.683 12.8913 70.8284 13.473 70.9403 14.0332H70.9738C71.0557 13.4876 71.1792 12.906 71.343 12.2872L72.003 9.80996H73.1903V9.80884Z" fill="black"/>
<path d="M79.4601 15.1121H78.2508V12.0746C78.2508 11.1386 77.8862 10.6706 77.1547 10.6706C76.7958 10.6706 76.5062 10.7989 76.2812 11.0565C76.0585 11.3141 75.9455 11.6179 75.9455 11.9655V15.111H74.7362V11.3243C74.7362 10.8585 74.7212 10.3534 74.6924 9.80663H75.7551L75.8116 10.6358H75.8451C75.9858 10.3781 76.1958 10.1655 76.4716 9.99564C76.7993 9.79764 77.1662 9.69751 77.5678 9.69751C78.0754 9.69751 78.4978 9.85726 78.8335 10.1779C79.2512 10.5705 79.4601 11.1566 79.4601 11.9351V15.1121Z" fill="black"/>
<path d="M82.794 15.1121H81.5859V7.37549H82.794V15.1121Z" fill="black"/>
<path d="M89.9133 12.4166C89.9133 13.2322 89.6744 13.9005 89.1967 14.4247C88.6959 14.9636 88.0313 15.2325 87.204 15.2325C86.4044 15.2325 85.7686 14.9749 85.2956 14.4574C84.8225 13.941 84.5859 13.2896 84.5859 12.5044C84.5859 11.6831 84.8294 11.0092 85.3186 10.4861C85.8079 9.96299 86.4656 9.70087 87.2929 9.70087C88.0925 9.70087 88.7329 9.95849 89.2198 10.4749C89.6813 10.9766 89.9133 11.6246 89.9133 12.4166ZM88.6579 12.4549C88.6579 11.9655 88.5494 11.5459 88.3336 11.196C88.0809 10.773 87.7186 10.5615 87.2502 10.5615C86.7632 10.5615 86.394 10.773 86.1413 11.196C85.9244 11.5459 85.8171 11.9722 85.8171 12.4762C85.8171 12.9656 85.9256 13.3852 86.1413 13.7351C86.4032 14.1581 86.7679 14.3696 87.2386 14.3696C87.7002 14.3696 88.0613 14.1547 88.3221 13.7239C88.5471 13.3672 88.6579 12.9442 88.6579 12.4549Z" fill="black"/>
<path d="M95.7662 15.1121H94.6804L94.5904 14.5012H94.5569C94.1854 14.9884 93.6558 15.2325 92.9681 15.2325C92.4546 15.2325 92.0392 15.0716 91.7266 14.7521C91.4427 14.4619 91.3008 14.1007 91.3008 13.6721C91.3008 13.0241 91.5777 12.5302 92.135 12.1882C92.6912 11.8462 93.4735 11.6786 94.4808 11.6865V11.5875C94.4808 10.8889 94.1046 10.5401 93.3512 10.5401C92.8146 10.5401 92.3416 10.6717 91.9331 10.9327L91.6873 10.1587C92.1927 9.85387 92.8169 9.70087 93.5531 9.70087C94.9746 9.70087 95.6877 10.4321 95.6877 11.8946V13.8476C95.6877 14.3775 95.7142 14.7994 95.7662 15.1121ZM94.5108 13.2896V12.4717C93.1769 12.4492 92.51 12.8059 92.51 13.5405C92.51 13.8172 92.5862 14.0242 92.7419 14.1626C92.8977 14.301 93.0962 14.3696 93.3327 14.3696C93.5981 14.3696 93.8462 14.2875 94.0723 14.1244C94.2996 13.9601 94.4392 13.752 94.4912 13.4966C94.5039 13.4392 94.5108 13.3695 94.5108 13.2896Z" fill="black"/>
<path d="M102.637 15.1121H101.564L101.507 14.2605H101.474C101.131 14.9085 100.547 15.2325 99.7266 15.2325C99.0713 15.2325 98.5255 14.9816 98.0928 14.4799C97.6601 13.9781 97.4443 13.3267 97.4443 12.5269C97.4443 11.6685 97.6786 10.9732 98.1493 10.4422C98.6051 9.94724 99.1636 9.69974 99.8282 9.69974C100.559 9.69974 101.07 9.93936 101.36 10.4197H101.384V7.37549H102.594V13.6834C102.594 14.1997 102.608 14.6756 102.637 15.1121ZM101.384 12.8756V11.9914C101.384 11.8384 101.372 11.7146 101.35 11.6201C101.282 11.3366 101.135 11.0981 100.913 10.9057C100.688 10.7134 100.417 10.6166 100.104 10.6166C99.6528 10.6166 99.2997 10.791 99.0401 11.1409C98.7828 11.4907 98.6524 11.9374 98.6524 12.483C98.6524 13.0072 98.7759 13.4325 99.0239 13.7599C99.2859 14.1086 99.6389 14.283 100.081 14.283C100.478 14.283 100.795 14.1379 101.036 13.8465C101.269 13.5776 101.384 13.2536 101.384 12.8756Z" fill="black"/>
<path d="M112.979 12.4166C112.979 13.2322 112.74 13.9005 112.262 14.4247C111.761 14.9636 111.099 15.2325 110.269 15.2325C109.472 15.2325 108.836 14.9749 108.361 14.4574C107.888 13.941 107.651 13.2896 107.651 12.5044C107.651 11.6831 107.895 11.0092 108.384 10.4861C108.873 9.96299 109.531 9.70087 110.361 9.70087C111.158 9.70087 111.801 9.95849 112.285 10.4749C112.747 10.9766 112.979 11.6246 112.979 12.4166ZM111.726 12.4549C111.726 11.9655 111.617 11.5459 111.401 11.196C111.146 10.773 110.786 10.5615 110.316 10.5615C109.831 10.5615 109.462 10.773 109.207 11.196C108.99 11.5459 108.883 11.9722 108.883 12.4762C108.883 12.9656 108.991 13.3852 109.207 13.7351C109.469 14.1581 109.833 14.3696 110.304 14.3696C110.766 14.3696 111.129 14.1547 111.39 13.7239C111.613 13.3672 111.726 12.9442 111.726 12.4549Z" fill="black"/>
<path d="M119.48 15.1121H118.272V12.0746C118.272 11.1386 117.908 10.6706 117.175 10.6706C116.816 10.6706 116.527 10.7989 116.303 11.0565C116.079 11.3141 115.967 11.6179 115.967 11.9655V15.111H114.757V11.3243C114.757 10.8585 114.743 10.3534 114.714 9.80663H115.775L115.832 10.6358H115.865C116.007 10.3781 116.217 10.1655 116.492 9.99564C116.821 9.79764 117.187 9.69751 117.589 9.69751C118.096 9.69751 118.518 9.85726 118.854 10.1779C119.273 10.5705 119.48 11.1566 119.48 11.9351V15.1121Z" fill="black"/>
<path d="M127.619 10.692H126.288V13.2682C126.288 13.923 126.524 14.2503 126.993 14.2503C127.21 14.2503 127.39 14.2323 127.532 14.1952L127.563 15.0896C127.324 15.1773 127.01 15.2212 126.624 15.2212C126.146 15.2212 125.774 15.0795 125.505 14.796C125.235 14.5125 125.102 14.0355 125.102 13.3661V10.692H124.307V9.80885H125.102V8.83685L126.287 8.4881V9.80772H127.618V10.692H127.619Z" fill="black"/>
<path d="M134.021 15.1121H132.81V12.0971C132.81 11.1465 132.446 10.6706 131.715 10.6706C131.155 10.6706 130.771 10.9462 130.561 11.4975C130.526 11.6134 130.505 11.7551 130.505 11.9216V15.111H129.297V7.37549H130.505V10.5716H130.528C130.909 9.98999 131.455 9.69974 132.162 9.69974C132.663 9.69974 133.077 9.85949 133.406 10.1801C133.815 10.5795 134.021 11.1735 134.021 11.9587V15.1121Z" fill="black"/>
<path d="M140.624 12.2096C140.624 12.4211 140.608 12.5989 140.579 12.744H136.952C136.968 13.2682 137.142 13.6676 137.477 13.9444C137.784 14.1919 138.18 14.3156 138.665 14.3156C139.201 14.3156 139.69 14.2324 140.131 14.0647L140.32 14.8837C139.805 15.102 139.198 15.2111 138.495 15.2111C137.653 15.2111 136.989 14.9692 136.509 14.4855C136.027 14.0017 135.788 13.3526 135.788 12.5381C135.788 11.7382 136.011 11.0722 136.46 10.5412C136.928 9.97423 137.562 9.69073 138.361 9.69073C139.143 9.69073 139.738 9.97423 140.139 10.5412C140.463 10.9912 140.624 11.5481 140.624 12.2096ZM139.47 11.9047C139.479 11.5549 139.4 11.2534 139.236 10.9991C139.026 10.6717 138.706 10.5075 138.273 10.5075C137.879 10.5075 137.557 10.6672 137.311 10.9879C137.11 11.2432 136.992 11.5481 136.952 11.9047H139.47Z" fill="black"/>
<path d="M62.6676 35.442H60.0472L58.6118 31.0443H53.6226L52.2553 35.442H49.7041L54.6472 20.4705H57.7003L62.6676 35.442ZM58.1791 29.1993L56.881 25.29C56.7437 24.8906 56.4864 23.9501 56.1068 22.4696H56.0606C55.9095 23.1063 55.666 24.0468 55.3314 25.29L54.0564 29.1993H58.1791Z" fill="black"/>
<path d="M75.3795 29.9115C75.3795 31.7475 74.8706 33.1987 73.853 34.2641C72.9414 35.2125 71.8095 35.6861 70.4583 35.6861C68.9999 35.6861 67.9522 35.1754 67.3141 34.1539H67.2679V39.8407H64.8079V28.2004C64.8079 27.0461 64.7768 25.8615 64.7168 24.6465H66.8803L67.0176 26.3576H67.0637C67.8841 25.0684 69.1291 24.4249 70.7999 24.4249C72.106 24.4249 73.1964 24.9277 74.0687 25.9346C74.9433 26.9426 75.3795 28.2679 75.3795 29.9115ZM72.8733 29.9992C72.8733 28.9485 72.631 28.0822 72.1441 27.4005C71.6122 26.6895 70.8979 26.334 70.0026 26.334C69.3956 26.334 68.8441 26.532 68.3514 26.9224C67.8576 27.3161 67.5345 27.8302 67.3833 28.467C67.3072 28.764 67.2691 29.007 67.2691 29.1982V30.9982C67.2691 31.7835 67.516 32.4461 68.0099 32.9872C68.5037 33.5284 69.1453 33.7984 69.9345 33.7984C70.861 33.7984 71.5822 33.4496 72.0979 32.7544C72.6149 32.058 72.8733 31.14 72.8733 29.9992Z" fill="black"/>
<path d="M88.1147 29.9115C88.1147 31.7475 87.6058 33.1987 86.587 34.2641C85.6766 35.2125 84.5447 35.6861 83.1935 35.6861C81.735 35.6861 80.6874 35.1754 80.0504 34.1539H80.0043V39.8407H77.5443V28.2004C77.5443 27.0461 77.5131 25.8615 77.4531 24.6465H79.6166L79.7539 26.3576H79.8C80.6193 25.0684 81.8643 24.4249 83.5362 24.4249C84.8412 24.4249 85.9316 24.9277 86.8062 25.9346C87.6774 26.9426 88.1147 28.2679 88.1147 29.9115ZM85.6085 29.9992C85.6085 28.9485 85.3651 28.0822 84.8781 27.4005C84.3462 26.6895 83.6343 26.334 82.7377 26.334C82.1297 26.334 81.5793 26.532 81.0854 26.9224C80.5916 27.3161 80.2697 27.8302 80.1185 28.467C80.0435 28.764 80.0043 29.007 80.0043 29.1982V30.9982C80.0043 31.7835 80.2512 32.4461 80.7427 32.9872C81.2366 33.5272 81.8781 33.7984 82.6697 33.7984C83.5962 33.7984 84.3174 33.4496 84.8331 32.7544C85.3501 32.058 85.6085 31.14 85.6085 29.9992Z" fill="black"/>
<path d="M102.353 31.2435C102.353 32.517 101.9 33.5531 100.989 34.353C99.9891 35.2271 98.5964 35.6636 96.8068 35.6636C95.1545 35.6636 93.8298 35.3531 92.8271 34.731L93.3972 32.7318C94.4772 33.3686 95.6622 33.6881 96.9533 33.6881C97.8798 33.6881 98.601 33.4833 99.1191 33.0761C99.6348 32.6688 99.8921 32.1221 99.8921 31.4403C99.8921 30.8328 99.6798 30.321 99.2541 29.9058C98.8306 29.4907 98.1233 29.1048 97.1356 28.7482C94.4471 27.7706 93.1041 26.3385 93.1041 24.4552C93.1041 23.2245 93.5748 22.2153 94.5175 21.4301C95.4568 20.6437 96.7098 20.2511 98.2768 20.2511C99.6741 20.2511 100.835 20.4885 101.761 20.9621L101.146 22.9173C100.281 22.4583 99.3025 22.2289 98.2075 22.2289C97.3421 22.2289 96.666 22.437 96.1814 22.851C95.7718 23.2211 95.5664 23.6722 95.5664 24.2066C95.5664 24.7983 95.8006 25.2877 96.2714 25.6725C96.681 26.028 97.4252 26.4127 98.5052 26.8278C99.8264 27.3465 100.797 27.9528 101.421 28.6481C102.043 29.3411 102.353 30.2085 102.353 31.2435Z" fill="black"/>
<path d="M110.486 26.4465H107.775V31.6879C107.775 33.021 108.252 33.687 109.21 33.687C109.65 33.687 110.014 33.6499 110.303 33.5756L110.371 35.397C109.886 35.5736 109.248 35.6625 108.458 35.6625C107.486 35.6625 106.727 35.3734 106.179 34.7962C105.633 34.218 105.359 33.2482 105.359 31.8859V26.4442H103.743V24.6442H105.359V22.6676L107.775 21.9566V24.6442H110.486V26.4465Z" fill="black"/>
<path d="M122.721 29.9553C122.721 31.6147 122.234 32.9771 121.263 34.0425C120.244 35.1393 118.891 35.6861 117.206 35.6861C115.581 35.6861 114.288 35.1607 113.323 34.11C112.358 33.0592 111.876 31.7328 111.876 30.1342C111.876 28.4613 112.372 27.0911 113.368 26.0257C114.361 24.9592 115.702 24.426 117.388 24.426C119.013 24.426 120.32 24.9513 121.306 26.0032C122.25 27.0236 122.721 28.341 122.721 29.9553ZM120.169 30.033C120.169 29.0373 119.951 28.1835 119.509 27.4713C118.993 26.6096 118.256 26.1798 117.3 26.1798C116.311 26.1798 115.56 26.6107 115.044 27.4713C114.603 28.1846 114.384 29.052 114.384 30.078C114.384 31.0736 114.603 31.9275 115.044 32.6385C115.576 33.5002 116.319 33.93 117.278 33.93C118.218 33.93 118.955 33.4912 119.487 32.616C119.94 31.8903 120.169 31.0275 120.169 30.033Z" fill="black"/>
<path d="M130.717 26.7559C130.473 26.712 130.214 26.6895 129.941 26.6895C129.076 26.6895 128.407 27.0079 127.936 27.6457C127.526 28.2082 127.321 28.9192 127.321 29.7776V35.442H124.862L124.885 28.0462C124.885 26.802 124.854 25.6691 124.793 24.6476H126.936L127.026 26.7131H127.094C127.353 26.0032 127.763 25.4317 128.324 25.0031C128.872 24.6172 129.464 24.4249 130.102 24.4249C130.329 24.4249 130.535 24.4406 130.717 24.4687V26.7559Z" fill="black"/>
<path d="M141.719 29.5335C141.719 29.9632 141.69 30.3255 141.629 30.6213H134.249C134.278 31.6878 134.634 32.5035 135.32 33.066C135.942 33.5688 136.746 33.8208 137.734 33.8208C138.826 33.8208 139.823 33.651 140.72 33.3101L141.105 34.9751C140.057 35.4206 138.82 35.6422 137.393 35.6422C135.676 35.6422 134.329 35.1495 133.348 34.1651C132.369 33.1807 131.879 31.8588 131.879 30.2006C131.879 28.5727 132.335 27.2171 133.247 26.136C134.203 24.9817 135.494 24.4046 137.119 24.4046C138.714 24.4046 139.922 24.9817 140.743 26.136C141.392 27.0529 141.719 28.1869 141.719 29.5335ZM139.373 28.9113C139.389 28.2003 139.229 27.5861 138.895 27.0675C138.47 26.4004 137.815 26.0674 136.935 26.0674C136.131 26.0674 135.477 26.3925 134.977 27.045C134.567 27.5636 134.324 28.1857 134.249 28.9102H139.373V28.9113Z" fill="black"/>
</svg>
