<svg width="156" height="45" viewBox="0 0 156 45" fill="none" xmlns="http://www.w3.org/2000/svg">
<path d="M150 45H5.76923C2.5976 45 0 42.4673 0 39.375V5.625C0 2.53265 2.5976 -4.76837e-06 5.76923 -4.76837e-06H150C153.172 -4.76837e-06 155.769 2.53265 155.769 5.625V39.375C155.769 42.4673 153.172 45 150 45Z" fill="white"/>
<path d="M150 0.9014C152.671 0.9014 154.845 3.02062 154.845 5.625V39.375C154.845 41.9794 152.671 44.0986 150 44.0986H5.76923C3.09808 44.0986 0.924519 41.9794 0.924519 39.375V5.625C0.924519 3.02062 3.09808 0.9014 5.76923 0.9014H150ZM150 -4.76837e-06H5.76923C2.5976 -4.76837e-06 0 2.53265 0 5.625V39.375C0 42.4673 2.5976 45 5.76923 45H150C153.172 45 155.769 42.4673 155.769 39.375V5.625C155.769 2.53265 153.172 -4.76837e-06 150 -4.76837e-06Z" fill="#A6A6A6"/>
<path d="M12.04 8.48108C11.701 8.82702 11.5049 9.36561 11.5049 10.0631V34.9425C11.5049 35.64 11.701 36.1786 12.04 36.5245L12.1236 36.6005L26.4227 22.6645V22.3355L12.1236 8.39952L12.04 8.48108Z" fill="url(#paint0_linear_816_1158)"/>
<path d="M31.1839 27.3122L26.4229 22.6645V22.3355L31.1897 17.6878L31.2964 17.7483L36.9416 20.88C38.5527 21.7688 38.5527 23.2313 36.9416 24.1256L31.2964 27.2517L31.1839 27.3122V27.3122Z" fill="url(#paint1_linear_816_1158)"/>
<path d="M31.2963 27.2517L26.4227 22.5L12.04 36.5245C12.5751 37.073 13.4477 37.1391 14.44 36.5906L31.2963 27.2517" fill="url(#paint2_linear_816_1158)"/>
<path d="M31.2963 17.7483L14.44 8.40938C13.4477 7.86656 12.5751 7.93266 12.04 8.48109L26.4227 22.5L31.2963 17.7483Z" fill="url(#paint3_linear_816_1158)"/>
<path d="M54.7129 11.5242C54.7129 12.4636 54.4245 13.2159 53.8562 13.777C53.2028 14.4421 52.3519 14.7768 51.3091 14.7768C50.3124 14.7768 49.4615 14.4365 48.7634 13.7657C48.0639 13.0851 47.7148 12.2498 47.7148 11.25C47.7148 10.2501 48.0639 9.4148 48.7634 8.7398C49.4615 8.0634 50.3124 7.72308 51.3091 7.72308C51.8052 7.72308 52.2783 7.82293 52.7297 8.00855C53.1797 8.19558 53.5461 8.44871 53.8115 8.7609L53.2086 9.35433C52.7456 8.82137 52.1153 8.5584 51.3091 8.5584C50.5822 8.5584 49.9519 8.8059 49.4168 9.30511C48.8874 9.80574 48.6221 10.454 48.6221 11.25C48.6221 12.0459 48.8874 12.6998 49.4168 13.2004C49.9519 13.694 50.5822 13.9471 51.3091 13.9471C52.0807 13.9471 52.7298 13.694 53.2418 13.1948C53.5793 12.8643 53.7711 12.4087 53.8216 11.8265H51.3091V11.0137H54.661C54.7014 11.1895 54.7129 11.3596 54.7129 11.5242V11.5242Z" fill="black" stroke="black" stroke-width="0.16" stroke-miterlimit="10"/>
<path d="M60.0311 8.70609H56.8826V10.8436H59.721V11.6564H56.8826V13.7939H60.0311V14.6222H55.9912V7.87781H60.0311V8.70609Z" fill="black" stroke="black" stroke-width="0.16" stroke-miterlimit="10"/>
<path d="M63.7835 14.6222H62.8922V8.70609H60.9609V7.87781H65.7162V8.70609H63.7835V14.6222V14.6222Z" fill="black" stroke="black" stroke-width="0.16" stroke-miterlimit="10"/>
<path d="M69.1572 14.6222V7.87781H70.0471V14.6222H69.1572Z" fill="black" stroke="black" stroke-width="0.16" stroke-miterlimit="10"/>
<path d="M73.9925 14.6222H73.1084V8.70609H71.1699V7.87781H75.931V8.70609H73.9925V14.6222Z" fill="black" stroke="black" stroke-width="0.16" stroke-miterlimit="10"/>
<path d="M84.9336 13.7545C84.2513 14.4365 83.4061 14.7768 82.398 14.7768C81.384 14.7768 80.5388 14.4365 79.8566 13.7545C79.1759 13.0739 78.8369 12.2386 78.8369 11.25C78.8369 10.2614 79.1759 9.42605 79.8566 8.74543C80.5388 8.0634 81.384 7.72308 82.398 7.72308C83.4004 7.72308 84.2456 8.0634 84.9278 8.75105C85.6143 9.4373 85.9533 10.267 85.9533 11.25C85.9533 12.2386 85.6143 13.0739 84.9336 13.7545ZM80.5158 13.1892C81.0292 13.694 81.6537 13.9471 82.398 13.9471C83.1364 13.9471 83.7667 13.694 84.2744 13.1892C84.7864 12.6843 85.046 12.0361 85.046 11.25C85.046 10.4639 84.7864 9.81558 84.2744 9.31074C83.7667 8.8059 83.1364 8.55277 82.398 8.55277C81.6537 8.55277 81.0292 8.8059 80.5158 9.31074C80.0037 9.81558 79.7441 10.4639 79.7441 11.25C79.7441 12.0361 80.0037 12.6843 80.5158 13.1892V13.1892Z" fill="black" stroke="black" stroke-width="0.16" stroke-miterlimit="10"/>
<path d="M87.2041 14.6222V7.87781H88.2858L91.6493 13.1231H91.6882L91.6493 11.8266V7.87781H92.5392V14.6222H91.6104L88.0882 9.11812H88.0493L88.0882 10.4203V14.6222H87.2041V14.6222Z" fill="black" stroke="black" stroke-width="0.16" stroke-miterlimit="10"/>
<path d="M78.617 24.4716C75.9069 24.4716 73.6929 26.4825 73.6929 29.2571C73.6929 32.0091 75.9069 34.0411 78.617 34.0411C81.3328 34.0411 83.5468 32.0091 83.5468 29.2571C83.5468 26.4825 81.3328 24.4716 78.617 24.4716ZM78.617 32.1568C77.1299 32.1568 75.8506 30.96 75.8506 29.2571C75.8506 27.5316 77.1299 26.356 78.617 26.356C80.104 26.356 81.3891 27.5316 81.3891 29.2571C81.3891 30.96 80.104 32.1568 78.617 32.1568V32.1568ZM67.8732 24.4716C65.1574 24.4716 62.9492 26.4825 62.9492 29.2571C62.9492 32.0091 65.1574 34.0411 67.8732 34.0411C70.5876 34.0411 72.7973 32.0091 72.7973 29.2571C72.7973 26.4825 70.5876 24.4716 67.8732 24.4716ZM67.8732 32.1568C66.3848 32.1568 65.1011 30.96 65.1011 29.2571C65.1011 27.5316 66.3848 26.356 67.8732 26.356C69.3602 26.356 70.6396 27.5316 70.6396 29.2571C70.6396 30.96 69.3602 32.1568 67.8732 32.1568ZM55.0886 25.9383V27.9718H60.0689C59.9232 29.108 59.5338 29.9433 58.9367 30.5255C58.2098 31.2286 57.0776 32.0091 55.0886 32.0091C52.0237 32.0091 49.6237 29.5974 49.6237 26.6091C49.6237 23.6208 52.0237 21.2091 55.0886 21.2091C56.7458 21.2091 57.9516 21.8405 58.8415 22.6589L60.3112 21.226C59.0665 20.0672 57.4107 19.1771 55.0886 19.1771C50.8857 19.1771 47.3535 22.5113 47.3535 26.6091C47.3535 30.7069 50.8857 34.0411 55.0886 34.0411C57.3602 34.0411 59.0665 33.3155 60.4078 31.9543C61.7824 30.6141 62.2107 28.7297 62.2107 27.2082C62.2107 26.7357 62.1703 26.3011 62.0982 25.9383H55.0886ZM107.366 27.5147C106.961 26.4446 105.711 24.4716 103.164 24.4716C100.64 24.4716 98.5381 26.4108 98.5381 29.2571C98.5381 31.9374 100.618 34.0411 103.406 34.0411C105.66 34.0411 106.961 32.701 107.496 31.9205L105.823 30.8335C105.265 31.6294 104.505 32.1568 103.406 32.1568C102.314 32.1568 101.531 31.6688 101.029 30.7069L107.593 28.0589L107.366 27.5147V27.5147ZM100.674 29.108C100.618 27.263 102.144 26.318 103.237 26.318C104.094 26.318 104.821 26.7357 105.063 27.3333L100.674 29.108V29.108ZM95.3391 33.75H97.4968V19.6875H95.3391V33.75ZM91.8054 25.5375H91.7333C91.2487 24.9778 90.3242 24.4716 89.153 24.4716C86.6953 24.4716 84.4482 26.5753 84.4482 29.2725C84.4482 31.9543 86.6953 34.0411 89.153 34.0411C90.3242 34.0411 91.2487 33.5307 91.7333 32.9541H91.8054V33.6403C91.8054 35.4699 90.803 36.4528 89.1862 36.4528C87.8679 36.4528 87.0501 35.5247 86.7126 34.7443L84.8362 35.5078C85.3771 36.7763 86.8093 38.3372 89.1862 38.3372C91.716 38.3372 93.8506 36.886 93.8506 33.3549V24.7627H91.8054V25.5375V25.5375ZM89.3376 32.1568C87.8506 32.1568 86.6059 30.9432 86.6059 29.2725C86.6059 27.5864 87.8506 26.356 89.3376 26.356C90.803 26.356 91.9583 27.5864 91.9583 29.2725C91.9583 30.9432 90.803 32.1568 89.3376 32.1568V32.1568ZM117.468 19.6875H112.308V33.75H114.46V28.4218H117.468C119.858 28.4218 122.202 26.7357 122.202 24.0539C122.202 21.3736 119.853 19.6875 117.468 19.6875V19.6875ZM117.525 26.4657H114.46V21.6436H117.525C119.131 21.6436 120.049 22.9444 120.049 24.0539C120.049 25.1424 119.131 26.4657 117.525 26.4657ZM130.827 24.4449C129.272 24.4449 127.655 25.1143 126.991 26.5978L128.9 27.3783C129.311 26.5978 130.067 26.3447 130.866 26.3447C131.982 26.3447 133.115 26.9986 133.132 28.1532V28.3008C132.742 28.0814 131.909 27.7566 130.883 27.7566C128.827 27.7566 126.731 28.8605 126.731 30.9207C126.731 32.805 128.416 34.0186 130.309 34.0186C131.757 34.0186 132.556 33.3816 133.058 32.6405H133.132V33.7275H135.21V28.3332C135.21 25.8399 133.301 24.4449 130.827 24.4449ZM130.567 32.1511C129.864 32.1511 128.883 31.8108 128.883 30.96C128.883 29.8716 130.106 29.4539 131.165 29.4539C132.112 29.4539 132.556 29.6578 133.132 29.9264C132.963 31.2286 131.814 32.1511 130.567 32.1511V32.1511ZM142.782 24.7528L140.309 30.8489H140.235L137.678 24.7528H135.357L139.2 33.2719L137.007 38.0124H139.256L145.177 24.7528H142.782V24.7528ZM123.385 33.75H125.542V19.6875H123.385V33.75Z" fill="black"/>
<defs>
<linearGradient id="paint0_linear_816_1158" x1="25.1531" y1="35.2016" x2="6.27894" y2="15.8435" gradientUnits="userSpaceOnUse">
<stop stop-color="#00A0FF"/>
<stop offset="0.0066" stop-color="#00A1FF"/>
<stop offset="0.2601" stop-color="#00BEFF"/>
<stop offset="0.5122" stop-color="#00D2FF"/>
<stop offset="0.7604" stop-color="#00DFFF"/>
<stop offset="1" stop-color="#00E3FF"/>
</linearGradient>
<linearGradient id="paint1_linear_816_1158" x1="39.0395" y1="22.4984" x2="11.12" y2="22.4984" gradientUnits="userSpaceOnUse">
<stop stop-color="#FFE000"/>
<stop offset="0.4087" stop-color="#FFBD00"/>
<stop offset="0.7754" stop-color="#FFA500"/>
<stop offset="1" stop-color="#FF9C00"/>
</linearGradient>
<linearGradient id="paint2_linear_816_1158" x1="28.6462" y1="19.9169" x2="3.05131" y2="-6.33427" gradientUnits="userSpaceOnUse">
<stop stop-color="#FF3A44"/>
<stop offset="1" stop-color="#C31162"/>
</linearGradient>
<linearGradient id="paint3_linear_816_1158" x1="8.41962" y1="44.8018" x2="19.8489" y2="33.0796" gradientUnits="userSpaceOnUse">
<stop stop-color="#32A071"/>
<stop offset="0.0685" stop-color="#2DA771"/>
<stop offset="0.4762" stop-color="#15CF74"/>
<stop offset="0.8009" stop-color="#06E775"/>
<stop offset="1" stop-color="#00F076"/>
</linearGradient>
</defs>
</svg>
